<?xml version="1.0" encoding="UTF-8"?>
<svg version="1.1" xmlns="http://www.w3.org/2000/svg" width="1125" height="675">
<path d="M0 0 C118.12906551 -0.04252476 118.12906551 -0.04252476 160.88916016 -0.05102539 C162.22962794 -0.05129467 163.57009572 -0.05156407 164.9105635 -0.05183358 C235.62722998 -0.06599129 306.3438971 -0.07397145 679.15103094 0.39765118 C686.94254932 0.42178991 694.73406886 0.44529546 702.5255928 0.46757126 C703.37939584 0.4700135 704.23319887 0.47245575 705.11287472 0.474972 C706.38951859 0.47862304 706.38951859 0.47862304 707.69195324 0.48234785 C726.14180439 0.53512512 744.59162171 0.59450393 763.04142902 0.66084561 C768.02322616 0.67858648 773.00502687 0.69430695 777.98683357 0.70909119 C784.4889141 0.72846281 790.99096474 0.75278048 797.49301517 0.78049481 C799.80790554 0.78969149 802.12280238 0.79742259 804.43770325 0.80341804 C819.97895508 0.84506299 835.47537522 1.2762566 851 2 C851.02279774 16.44754741 851.04095159 30.89508853 851.05181217 45.34265041 C851.05695826 52.05160088 851.06396867 58.76053954 851.07543945 65.46948242 C851.08632402 71.94689624 851.09228865 78.42429779 851.09487724 84.90172005 C851.09672145 87.36997737 851.10032271 89.83823404 851.10573006 92.30648613 C851.11301438 95.77001254 851.11398782 99.23348862 851.11352539 102.69702148 C851.11712067 103.71194672 851.12071594 104.72687195 851.12442017 105.77255249 C851.11603473 111.59656096 850.75058365 117.22325005 850 123 C849.67 123 849.34 123 849 123 C849 83.4 849 43.8 849 3 C833.16 3.495 833.16 3.495 817 4 C799.66928805 4.22876089 799.66928805 4.22876089 793.63607645 4.26325357 C792.27371305 4.27145376 790.91134981 4.27968265 789.54898673 4.28793673 C788.85906402 4.29195188 788.1691413 4.29596703 787.45831183 4.30010385 C784.50432861 4.31790548 781.5503677 4.33857861 778.59640284 4.35917521 C769.72686691 4.42093983 760.85729474 4.47493055 751.98769492 4.52658565 C747.71238526 4.55151337 743.43708315 4.57754375 739.16178235 4.60394373 C665.46682733 5.05892129 591.7733152 5.13506313 518.07718627 5.10353873 C505.7247693 5.09834488 493.37235361 5.09580732 481.01993561 5.09487724 C479.67393497 5.09477413 479.67393497 5.09477413 478.3007424 5.09466894 C473.73771054 5.09433029 469.17467867 5.09402902 464.6116468 5.09374207 C432.86951448 5.09168003 401.12738477 5.08505478 369.38525391 5.07543945 C338.68245456 5.06615017 307.97965595 5.05911916 277.27685547 5.05493164 C276.31876693 5.05480011 275.36067839 5.05466859 274.37355686 5.05453308 C264.7459506 5.05321377 255.11834433 5.05193807 245.49073806 5.05069422 C225.90432745 5.04816273 206.31791689 5.0453415 186.73150635 5.04234314 C185.83232834 5.04220585 184.93315033 5.04206856 184.0067245 5.04192711 C156.62571885 5.03773124 129.24471365 5.03231583 101.8637085 5.02565002 C101.09128095 5.02546247 100.31885341 5.02527491 99.52301897 5.02508167 C68.34867911 5.01749313 37.1743396 5.00858106 6 5 C6 88.49 6 171.98 6 258 C36.11636719 257.98839844 66.23273438 257.97679687 97.26171875 257.96484375 C116.90747076 257.95891644 136.55322224 257.95316845 156.19897461 257.94897461 C157.43484992 257.94870791 158.67072523 257.9484412 159.94405131 257.94816642 C416.2685425 257.89322235 416.2685425 257.89322235 627.96145824 258.41376363 C632.96493357 258.43221594 637.96841076 258.45006943 642.9718895 258.46757126 C711.9847178 258.70926392 780.99159391 259.16949421 850 260 C850 260.33 850 260.66 850 261 C767.21421826 261.73971051 684.42952434 262.26505879 601.64082623 262.53984865 C596.32880172 262.55752555 591.01677935 262.57576811 585.70475769 262.59428024 C485.77850744 262.94204515 385.85263813 263.05492146 136.26904297 263.05102539 C134.65869533 263.05064847 134.65869533 263.05064847 133.01581541 263.05026393 C88.67720738 263.0397883 44.33860583 263.01886214 0 263 C0 176.21 0 89.42 0 0 Z " fill="#323031" transform="translate(137,206)"/>
<path d="M0 0 C2.5 1.625 2.5 1.625 4 4 C4.375 7.125 4.375 7.125 4 10 C3.34 10.66 2.68 11.32 2 12 C-0.5625 11.75 -0.5625 11.75 -3 11 C-3.33 10.34 -3.66 9.68 -4 9 C-11.63168881 9.33181256 -17.64218486 12.83648881 -23.16015625 18.03515625 C-26.08582105 21.24918226 -28.21581187 23.64339927 -29 28 C-22.13556071 29.48676796 -15.25488262 30.58275928 -8.296875 31.53515625 C-6.24218196 31.82485823 -4.19373629 32.17137268 -2.1640625 32.6027832 C1.27151691 33.03408627 3.57772829 32.66204019 6.921875 31.8203125 C8.03046875 31.55089844 9.1390625 31.28148437 10.28125 31.00390625 C11.99828125 30.56884766 11.99828125 30.56884766 13.75 30.125 C20.89882403 28.33779399 27.68802154 26.67095888 35.08300781 26.49951172 C37.18842781 26.18626064 37.18842781 26.18626064 38.18310547 24.09033203 C38.45268066 23.40052246 38.72225586 22.71071289 39 22 C45.31262525 12.76553106 45.31262525 12.76553106 49 10 C52.25 9.75 52.25 9.75 55 10 C55.54410442 14.80918098 53.96724981 16.95377707 51.125 20.75 C47.2738469 26.04143443 43.80613811 31.47696385 40.5 37.125 C40.06703613 37.85944336 39.63407227 38.59388672 39.18798828 39.35058594 C37.50347641 42.24468123 36.06368343 44.80894971 35 48 C35.7734375 47.0821875 36.546875 46.164375 37.34375 45.21875 C59.71412078 18.79447021 59.71412078 18.79447021 72 15 C77.53191489 15.53191489 77.53191489 15.53191489 79 17 C79.4184261 23.06717844 78.52799738 26.50493201 76 32 C77.4540625 31.61908203 77.4540625 31.61908203 78.9375 31.23046875 C80.29141938 30.8818507 81.64560784 30.53427674 83 30.1875 C83.71462402 30.00300293 84.42924805 29.81850586 85.16552734 29.62841797 C88.90082183 28.68826403 92.60581507 27.86263815 96.4140625 27.27734375 C104.14678177 26.08789901 108.77815641 25.20975994 114 19 C116.875 19.125 116.875 19.125 119 20 C118.3809522 23.14114295 117.32860276 25.29526298 115.53125 27.93359375 C115.04269531 28.66513672 114.55414062 29.39667969 114.05078125 30.15039062 C113.01874079 31.67245533 111.98489153 33.19329517 110.94921875 34.71289062 C107.35842232 39.91874527 107.35842232 39.91874527 106 46 C106.33 46.66 106.66 47.32 107 48 C120.78523515 47.0600976 138.21750535 37.56691356 149 29 C150.02350369 26.55773457 150.02350369 26.55773457 150.1875 23.9375 C150.69953649 19.39744308 150.69953649 19.39744308 152.35546875 17.20703125 C154.856458 15.37138831 156.99654727 15.7388302 160 16 C160.33 16.33 160.66 16.66 161 17 C160.896875 17.928125 160.79375 18.85625 160.6875 19.8125 C160.790625 20.864375 160.89375 21.91625 161 23 C163.84968468 25.37227618 163.84968468 25.37227618 167 27 C168 28 168 28 168.5 30.875 C168.41591217 36.77316079 164.18923718 41.3179284 161 46 C154.61964159 55.73762471 154.61964159 55.73762471 153 67 C154.24512373 68.79732249 154.24512373 68.79732249 156 70 C167.41378968 70.48569318 177.93725155 59.96181091 186 53 C187.14899946 52.02386772 188.29877516 51.0486486 189.44921875 50.07421875 C194.82094041 45.51040636 200.1305338 40.90463963 205.3125 36.125 C209.00709957 32.75853921 212.83298941 30.00622787 217.046875 27.33203125 C219.22037563 25.93830267 219.22037563 25.93830267 221.5625 23.4375 C225.82220979 19.17779021 229.8110297 16.24714181 235.875 15.5625 C239 16 239 16 241 18 C241.67166827 21.45429396 241.08810971 22.85524833 239.25 25.875 C233.8445836 31.83799517 225.94562888 36.08820652 218 37 C216.8083732 41.49703121 216.8083732 41.49703121 218.0625 45.69921875 C226.027079 51.04640586 242.69258527 46.3047818 251.4609375 44.90625 C252.14818468 44.79806946 252.83543186 44.68988892 253.54350471 44.57843018 C271.18844447 41.78769915 288.66089637 38.16413529 306.14996338 34.54174805 C336.57471691 28.24297499 367.05036098 23.02944815 398 20 C398.91152832 19.90428711 399.82305664 19.80857422 400.76220703 19.70996094 C411.18429538 18.74696619 421.63314842 18.77854237 432.09179688 18.75976562 C435.36093423 18.75004184 438.62944635 18.71892317 441.8984375 18.6875 C472.334451 18.5341157 472.334451 18.5341157 483 26 C484.125 29.125 484.125 29.125 484 32 C483.34 32.66 482.68 33.32 482 34 C477.52240614 33.7579679 475.38777629 31.74248557 472 29 C460.2158828 22.48112665 444.83777079 23.63180411 431.75 23.6875 C430.41107697 23.69023422 430.41107697 23.69023422 429.04510498 23.69302368 C382.9161068 23.85014089 337.62737419 32.05373795 292.5859375 41.34375 C291.61629562 41.54345398 290.64665375 41.74315796 289.64762878 41.94891357 C284.93693353 42.92026977 280.22791198 43.89861033 275.52172852 44.89160156 C260.21095163 48.09664573 244.64876291 51.13208542 229 52 C228.18144531 52.05285156 227.36289062 52.10570312 226.51953125 52.16015625 C221.83848713 52.33579086 218.71903209 52.1721156 215 49 C212.71105021 46.48215523 211.98539974 44.86539746 212.04296875 41.453125 C212.28681474 38.95105313 212.60006256 36.48153955 213 34 C211.83984375 35.06927734 211.83984375 35.06927734 210.65625 36.16015625 C198.55949002 47.29369904 198.55949002 47.29369904 193 52 C192.17290527 52.70793701 192.17290527 52.70793701 191.32910156 53.43017578 C168.08595109 73.23324359 168.08595109 73.23324359 157.375 73.75 C154.15325376 73.46432792 153.1194915 73.0874328 150.4375 71.125 C147.89564377 67.36747341 147.44365289 64.4669029 148 60 C149.88105446 52.59559454 153.4124519 46.15480498 157.35742188 39.68334961 C159.522876 36.10955041 159.522876 36.10955041 160 32 C157.48105281 30.95124293 155.67492385 30.23681155 153 30 C150.27102437 31.34453468 148.30529611 32.55766264 145.9375 34.375 C144.6210634 35.31611073 143.30199033 36.25354313 141.98046875 37.1875 C141.31837402 37.661875 140.6562793 38.13625 139.97412109 38.625 C129.97739598 45.58784391 117.52742258 53.21599004 105 53 C101.9375 51.1875 101.9375 51.1875 100 48 C99.47653316 41.49564607 101.67287161 35.95061906 104 30 C99.97667383 30.92700673 95.95686385 31.86847395 91.9375 32.8125 C90.80376953 33.07353516 89.67003906 33.33457031 88.50195312 33.60351562 C78.85424671 35.88183697 72.4525718 37.41171448 66.5625 45.6875 C65.61314686 46.9533584 64.66001873 48.21639454 63.703125 49.4765625 C63.24357422 50.0840332 62.78402344 50.69150391 62.31054688 51.31738281 C57.72039842 57.21069562 52.00195058 63.0738117 45 66 C42 65.8125 42 65.8125 40 65 C40 56.95094804 43.61090803 52.72648013 49 47 C53.26789334 42.75468811 57.57381556 39.19809126 62.75 36.125 C67.81334475 32.91496357 70.0123171 28.5535261 72 23 C72 22.34 72 21.68 72 21 C63.6969075 24.79510036 57.400033 30.63457277 51 37 C50.51660156 37.47937012 50.03320312 37.95874023 49.53515625 38.45263672 C28.90144028 59.20517829 14.34476128 84.12280889 2.16796875 110.50585938 C0.51322372 114.03948715 -1.23550986 117.52003334 -3 121 C-4.32 121 -5.64 121 -7 121 C-6.58722241 113.22197531 -4.31824241 107.15015296 -1.1875 100.0625 C-0.45370117 98.36927612 -0.45370117 98.36927612 0.29492188 96.6418457 C1.84546334 93.08638715 3.41836637 89.54172785 5 86 C5.50063965 84.87625977 6.0012793 83.75251953 6.51708984 82.59472656 C14.74544565 64.22406873 23.49920157 46.18888782 34 29 C33.18321777 29.20681396 32.36643555 29.41362793 31.52490234 29.62670898 C28.47265061 30.39833105 25.41986099 31.16777841 22.36669922 31.93579102 C21.04942477 32.26761242 19.7323634 32.60028099 18.41552734 32.93383789 C16.51457069 33.41519292 14.61276083 33.89317442 12.7109375 34.37109375 C11.56931152 34.65911865 10.42768555 34.94714355 9.25146484 35.24389648 C6.1778533 35.95864156 3.11784329 36.51890233 0 37 C0.3403125 38.918125 0.3403125 38.918125 0.6875 40.875 C1.75658845 51.08718817 -3.24795746 58.94962513 -9 67 C-9.69416016 67.97453125 -9.69416016 67.97453125 -10.40234375 68.96875 C-16.86602828 77.21228969 -27.30692261 84.88429126 -37.828125 86.41015625 C-42.49129219 86.6532893 -45.17792423 86.51581225 -49.1875 84 C-51.51340022 80.15023411 -51.91377002 77.31208826 -51 73 C-45.61584037 57.25970557 -31.56475718 47.57813324 -17.3125 40.5 C-14.88251718 39.3161413 -12.44472075 38.15334379 -10 37 C-10.54938232 36.92483154 -11.09876465 36.84966309 -11.66479492 36.7722168 C-14.17413221 36.42220591 -16.68067011 36.05502211 -19.1875 35.6875 C-20.05181641 35.56955078 -20.91613281 35.45160156 -21.80664062 35.33007812 C-25.67959815 34.75136033 -28.47425489 34.31774227 -31.86328125 32.26953125 C-32.56839844 31.85058594 -33.27351562 31.43164062 -34 31 C-36.02342569 31.48616119 -36.02342569 31.48616119 -38 33 C-39.04929687 33.63292969 -40.09859375 34.26585937 -41.1796875 34.91796875 C-41.77177002 35.28196777 -42.36385254 35.6459668 -42.97387695 36.02099609 C-71.60576962 53.58914598 -71.60576962 53.58914598 -85 52 C-87.8100346 50.20636089 -89.50940468 48.98119065 -91 46 C-91.06996014 44.29297265 -91.08440154 42.58331997 -91.0625 40.875 C-91.05347656 39.96492188 -91.04445313 39.05484375 -91.03515625 38.1171875 C-91.02355469 37.41851562 -91.01195312 36.71984375 -91 36 C-92.39412109 36.83144531 -92.39412109 36.83144531 -93.81640625 37.6796875 C-95.06486499 38.41186631 -96.31357652 39.14361421 -97.5625 39.875 C-98.17158203 40.23980469 -98.78066406 40.60460937 -99.40820312 40.98046875 C-105.65769507 44.6177392 -111.63546522 46.78333993 -118.9140625 45.640625 C-121.64217313 44.80277829 -123.4683468 43.49175669 -125.13671875 41.1640625 C-127.04476412 36.38099853 -126.91692285 31.09036375 -127 26 C-136.30970652 33.57693543 -142.34975801 41.42719869 -148 52 C-149.65 51.67 -151.3 51.34 -153 51 C-152.57278337 44.3735973 -149.98701302 39.38887356 -146.9375 33.5625 C-146.46505859 32.64017578 -145.99261719 31.71785156 -145.50585938 30.76757812 C-144.34622899 28.50688455 -143.17749658 26.25142445 -142 24 C-145.01976424 23.84188612 -145.01976424 23.84188612 -147.8125 24.9375 C-153.67187212 26.72574993 -159.92244974 26.67968528 -166 27 C-165.96777344 28.07378906 -165.93554688 29.14757812 -165.90234375 30.25390625 C-166.09520037 37.65188633 -170.2459814 42.91368041 -175.1328125 48.23046875 C-177.93514381 50.88623461 -180.44681411 52.4580514 -184 54 C-186.34646126 53.81475306 -187.35260358 53.64739642 -189 52 C-189.85431674 41.17420505 -182.6273693 32.06071544 -175.91796875 24.10546875 C-173.39755949 21.3386651 -171.13413091 19.06567719 -168 17 C-165.625 17.1875 -165.625 17.1875 -164 18 C-164 18.99 -164 19.98 -164 21 C-157.2867992 21.31841269 -152.45312707 20.49022461 -146.25 18 C-137.28339279 14.47683752 -137.28339279 14.47683752 -133 15 C-132 16 -132 16 -131.875 18.9375 C-132 22 -132 22 -133 24 C-132.278125 23.484375 -131.55625 22.96875 -130.8125 22.4375 C-128 21 -128 21 -125.25 21.25 C-123 22 -123 22 -122 23 C-121.75344883 26.23255976 -121.61578909 29.46427492 -121.4765625 32.703125 C-120.9475936 36.36254917 -120.5511415 38.29639984 -118 41 C-111.73450849 41.90833052 -107.53410497 40.37281589 -102.0625 37.4375 C-101.36447266 37.07470947 -100.66644531 36.71191895 -99.94726562 36.33813477 C-93.60869703 32.95879325 -88.23516163 28.89904094 -82.89453125 24.11328125 C-74.05240358 16.20015761 -74.05240358 16.20015761 -67.1875 15.75 C-64 16 -64 16 -63 17 C-62.53890823 20.99612864 -62.41125142 23.18793299 -64.8125 26.5 C-70.8832521 31.7035018 -77.07915367 35.76913467 -85 37 C-86.39431504 39.78863007 -86.25660094 41.92078868 -86 45 C-82.17254391 47.55163739 -79.41818307 47.65117437 -75 47 C-66.92836395 44.73810483 -59.52643765 40.85782312 -52.125 37 C-51.32860107 36.58508301 -50.53220215 36.17016602 -49.71166992 35.74267578 C-39.87602158 30.86130338 -39.87602158 30.86130338 -33.6875 22.3125 C-29.19301981 12.45695684 -20.53725735 5.74237934 -11 1 C-7.29036293 -0.23654569 -3.85570922 -0.5508156 0 0 Z M226.875 25.5 C225.92625 26.325 224.9775 27.15 224 28 C227.24565858 28.34055197 227.24565858 28.34055197 229.6875 25.5 C230.450625 24.675 231.21375 23.85 232 23 C229.41073669 23 228.79948339 23.82653618 226.875 25.5 Z M-79 27 C-78.67 27.66 -78.34 28.32 -78 29 C-76.35 27.35 -74.7 25.7 -73 24 C-75.76223278 24 -76.89281454 25.31425163 -79 27 Z M-172 30 C-173.3945955 31.98132807 -174.73986676 33.97150549 -176.0625 36 C-176.43955078 36.57234375 -176.81660156 37.1446875 -177.20507812 37.734375 C-178.13980947 39.15422009 -179.07029781 40.57685679 -180 42 C-179.67 42.66 -179.34 43.32 -179 44 C-172.97043946 38.02264359 -172.97043946 38.02264359 -171 30 C-171.33 30 -171.66 30 -172 30 Z M-14.5625 43.5625 C-15.28123291 43.92601562 -15.99996582 44.28953125 -16.74047852 44.6640625 C-22.53083462 47.6506193 -27.88198428 50.95195272 -33 55 C-34.20269531 55.93972656 -34.20269531 55.93972656 -35.4296875 56.8984375 C-41.89047029 62.25770978 -45.94893258 67.65558799 -47.9375 75.875 C-48.30098023 79.16735887 -48.30098023 79.16735887 -46 82 C-40.48929028 83.72209679 -36.76228575 82.66456776 -31.55078125 80.36328125 C-27.26288043 78.07158541 -23.63971506 75.20430989 -20 72 C-19.38253906 71.46503906 -18.76507813 70.93007813 -18.12890625 70.37890625 C-11.11184016 63.86194287 -5.51201381 55.26305094 -3 46 C-3.19564066 42.6342681 -3.19564066 42.6342681 -4 40 C-8.06946216 40 -11.01234046 41.76142748 -14.5625 43.5625 Z M58 46 C56.2856382 47.95927063 54.61594832 49.95880212 53 52 C56.36720387 50.60667426 57.9859524 49.0210714 60 46 C59.34 46 58.68 46 58 46 Z M32 50 C33 52 33 52 33 52 Z " fill="#323031" transform="translate(504,316)"/>
<path d="M0 0 C1.18464844 -0.02578125 2.36929688 -0.0515625 3.58984375 -0.078125 C8.3334564 0.37009037 11.57557584 1.70940766 14.90234375 5.15625 C17.09829217 9.11930843 16.77599859 12.86621628 16.0625 17.25 C12.95085453 26.52169157 6.89119095 33.57233685 0.44970703 40.69824219 C-0.88646674 42.19291317 -2.18058996 43.72485249 -3.47265625 45.2578125 C-4.24480469 46.16273438 -5.01695312 47.06765625 -5.8125 48 C-6.49054688 48.79921875 -7.16859375 49.5984375 -7.8671875 50.421875 C-10.26735704 52.54126999 -11.76971763 53.019996 -14.9375 53.25 C-15.5975 52.92 -16.2575 52.59 -16.9375 52.25 C-17.2421875 49.53515625 -17.2421875 49.53515625 -16.9375 46.25 C-14.8828125 43.93359375 -14.8828125 43.93359375 -12.0625 41.6875 C-3.7693853 34.58217334 5.29824841 25.12574396 8.0625 14.25 C7.91379687 10.8729518 7.91379687 10.8729518 6.0625 8.25 C-4.24137115 7.3174538 -13.16466507 9.03047939 -22.9375 12.25 C-23.56881836 12.45367187 -24.20013672 12.65734375 -24.85058594 12.8671875 C-47.13784009 20.20194661 -75.5977518 34.20987635 -87.9375 55.25 C-88.5352034 59.43392381 -88.34635792 61.5118585 -86.29296875 65.21899414 C-78.74729217 74.92873447 -64.206304 78.61956345 -52.9375 82.3125 C-50.0373231 83.27005059 -47.14160803 84.23952921 -44.25 85.22265625 C-43.19653885 85.57729698 -43.19653885 85.57729698 -42.12179565 85.93910217 C-37.27818341 87.62621454 -32.88186346 89.77175859 -28.3828125 92.21875 C-23.19239474 95.02361851 -23.19239474 95.02361851 -17.4921875 95.05859375 C-16.27789062 94.60613281 -15.06359375 94.15367187 -13.8125 93.6875 C-12.47080338 93.247447 -11.12565507 92.81778586 -9.77734375 92.3984375 C-9.1313623 92.19057617 -8.48538086 91.98271484 -7.81982422 91.76855469 C-1.96593128 90.1558869 4.55413485 90.41305346 10.25 92.5 C13.0625 94.25 13.0625 94.25 14 96.4375 C14.020625 97.035625 14.04125 97.63375 14.0625 98.25 C12.0625 97.25 10.0625 96.25 8.0625 95.25 C-0.75987395 94.62583205 -8.57583653 95.38314395 -16.9375 98.25 C-16.38320313 98.84167969 -15.82890625 99.43335938 -15.2578125 100.04296875 C-14.17113281 101.22826172 -14.17113281 101.22826172 -13.0625 102.4375 C-12.34320313 103.21480469 -11.62390625 103.99210937 -10.8828125 104.79296875 C-6.59443536 110.20941297 -6.25893418 115.55021043 -6.37890625 122.296875 C-8.2122184 135.27108408 -17.05761886 146.11350939 -25.9375 155.25 C-26.40671875 155.73307617 -26.8759375 156.21615234 -27.359375 156.71386719 C-43.53355289 173.03245738 -65.95299756 187.08757678 -89.375 187.6875 C-96.16275377 187.45740665 -101.44833267 186.80299213 -106.375 181.75 C-109.11374336 177.36801062 -109.52161193 173.30085018 -108.9375 168.25 C-106.84751186 159.72058896 -101.74357128 153.63039672 -95.9375 147.25 C-95.13441406 146.36441406 -94.33132812 145.47882813 -93.50390625 144.56640625 C-76.78725792 127.03555282 -55.10087529 113.34825281 -33.89453125 101.921875 C-30.92747623 100.41832159 -30.92747623 100.41832159 -28.9375 98.25 C-36.53921463 94.58271914 -44.22509916 91.41260263 -52.2578125 88.8046875 C-53.22988144 88.48831833 -53.22988144 88.48831833 -54.22158813 88.16555786 C-57.48235323 87.10991881 -60.74853744 86.07620109 -64.02392578 85.06689453 C-75.90499984 81.28225382 -87.66281305 76.56800098 -94.05859375 65.26953125 C-95.8827656 61.07798972 -95.52722553 57.14151327 -94.203125 52.89453125 C-84.38166398 30.51156391 -53.75833098 15.51222484 -32.08056641 7.02441406 C-21.82636404 3.31897662 -10.9327029 0.14244564 0 0 Z M-33.8125 105.875 C-34.79541016 106.45749512 -35.77832031 107.03999023 -36.79101562 107.64013672 C-56.62432155 119.55093382 -75.1738843 133.30959757 -91.9375 149.25 C-92.989375 150.22259766 -92.989375 150.22259766 -94.0625 151.21484375 C-100.18094815 157.03000675 -104.99933999 163.44424814 -105.25 172.125 C-105.20863602 175.67196096 -105.03107639 177.08364197 -103.25 180.25 C-97.20379973 185.47914618 -89.65043954 184.9561801 -82.06738281 184.47949219 C-66.27357601 182.77772942 -50.57573066 172.52019333 -38.9375 162.25 C-38.10863281 161.54101562 -37.27976562 160.83203125 -36.42578125 160.1015625 C-25.14567783 150.25522414 -11.88448594 137.32554767 -9.56640625 121.7578125 C-9.38568508 115.27311171 -10.69647086 111.1873175 -14.9375 106.25 C-17.13013746 104.04795208 -19.34552109 101.97363333 -21.9375 100.25 C-26.17971418 100.25 -30.2516788 103.76459432 -33.8125 105.875 Z " fill="#323031" transform="translate(280.9375,233.75)"/>
<path d="M0 0 C0.76957031 0.06058594 1.53914063 0.12117188 2.33203125 0.18359375 C3.51123047 1.85839844 3.51123047 1.85839844 4.33203125 4.18359375 C3.27392578 6.65722656 3.27392578 6.65722656 1.46484375 9.38671875 C0.82675781 10.36640625 0.18867188 11.34609375 -0.46875 12.35546875 C-1.15324219 13.37125 -1.83773437 14.38703125 -2.54296875 15.43359375 C-3.21972656 16.46484375 -3.89648438 17.49609375 -4.59375 18.55859375 C-6.27109452 21.11004738 -7.96274071 23.6507263 -9.66796875 26.18359375 C-8.63823189 26.18026283 -8.63823189 26.18026283 -7.58769226 26.17686462 C51.11538639 25.99583805 51.11538639 25.99583805 72.45703125 26.62109375 C73.53133896 26.65056595 73.53133896 26.65056595 74.62734985 26.68063354 C85.77338858 26.99737953 85.77338858 26.99737953 89.33203125 28.18359375 C89.00203125 29.50359375 88.67203125 30.82359375 88.33203125 32.18359375 C87.3794342 31.9420607 87.3794342 31.9420607 86.40759277 31.69564819 C82.29872417 31.01155704 78.28196381 31.01126411 74.12304688 30.99072266 C72.74411507 30.97845642 72.74411507 30.97845642 71.33732605 30.96594238 C68.30431764 30.94118829 65.27135554 30.92460281 62.23828125 30.91015625 C61.20101395 30.90483257 60.16374664 30.8995089 59.095047 30.8940239 C53.61040995 30.86734269 48.12579534 30.84794706 42.64111328 30.83349609 C38.10152158 30.82012877 33.56237638 30.7922174 29.02294922 30.75146484 C23.53823966 30.70223103 18.05393662 30.67738743 12.5690155 30.67026901 C10.47978778 30.66354732 8.39056946 30.64830153 6.3014679 30.6243782 C3.38083259 30.59282581 0.46177599 30.59267437 -2.45898438 30.60009766 C-3.75271721 30.57548965 -3.75271721 30.57548965 -5.07258606 30.55038452 C-9.45860635 30.59604833 -11.12786857 30.74867438 -14.66059875 33.59342957 C-16.3453494 35.76730922 -17.76209308 37.74626527 -18.9921875 40.1953125 C-19.37528076 40.94280762 -19.75837402 41.69030273 -20.15307617 42.46044922 C-20.54986572 43.25596191 -20.94665527 44.05147461 -21.35546875 44.87109375 C-22.23900241 46.59731924 -23.12446359 48.32255935 -24.01171875 50.046875 C-24.45644531 50.91393066 -24.90117187 51.78098633 -25.359375 52.67431641 C-27.2760321 56.34957792 -29.31403979 59.95167509 -31.35546875 63.55859375 C-54.22625209 99.28077218 -54.22625209 99.28077218 -64.66796875 138.18359375 C-64.17296875 139.17359375 -64.17296875 139.17359375 -63.66796875 140.18359375 C-64.91796875 141.74609375 -64.91796875 141.74609375 -66.66796875 143.18359375 C-68.85546875 142.87109375 -68.85546875 142.87109375 -70.66796875 142.18359375 C-70.92787946 136.78166584 -70.10342413 132.31285681 -68.35546875 127.24609375 C-68.09330566 126.47595947 -67.83114258 125.7058252 -67.56103516 124.91235352 C-64.09251111 115.10102542 -59.63168211 105.72486176 -55.16650391 96.33642578 C-53.66896039 93.18568011 -52.18906932 90.02707882 -50.7109375 86.8671875 C-44.66136015 74.01605742 -38.16864899 61.48894409 -31.25976562 49.08105469 C-28.00065378 43.14867135 -24.84101193 37.16232779 -21.66796875 31.18359375 C-27.30186618 31.42432221 -32.93534571 31.67296344 -38.56860352 31.92822266 C-40.47573924 32.01360963 -42.38296483 32.09701786 -44.2902832 32.17822266 C-55.05514078 32.63799248 -65.74867494 33.25961608 -76.45320129 34.51852417 C-82.20602793 35.18953398 -87.87461861 35.41793151 -93.66796875 35.18359375 C-93.33796875 33.53359375 -93.00796875 31.88359375 -92.66796875 30.18359375 C-85.90857192 28.17482817 -79.52397741 27.7790518 -72.49609375 27.5859375 C-71.33728699 27.54674698 -70.17848022 27.50755646 -68.98455811 27.46717834 C-65.29590638 27.34370941 -61.60702382 27.23179434 -57.91796875 27.12109375 C-54.24329208 27.00487074 -50.5687208 26.88613762 -46.89422607 26.76429749 C-44.61476312 26.6893362 -42.33518227 26.61784528 -40.05548096 26.55052185 C-36.92487795 26.45102538 -33.79697418 26.32430709 -30.66796875 26.18359375 C-29.56315155 26.14155319 -28.45833435 26.09951263 -27.32003784 26.05619812 C-25.7116655 25.96674675 -25.7116655 25.96674675 -24.07080078 25.87548828 C-22.62690475 25.80408127 -22.62690475 25.80408127 -21.15383911 25.73123169 C-18.13571177 25.06633739 -17.27184959 24.1405051 -15.51953125 21.6484375 C-14.73470215 20.16105309 -13.99338417 18.65004351 -13.29296875 17.12109375 C-12.48196493 15.56754642 -11.66819199 14.0154413 -10.8515625 12.46484375 C-10.47757324 11.72234375 -10.10358398 10.97984375 -9.71826172 10.21484375 C-4.60018131 0.31655713 -4.60018131 0.31655713 0 0 Z " fill="#323031" transform="translate(346.66796875,260.81640625)"/>
<path d="M0 0 C5.506875 -0.12375 5.506875 -0.12375 11.125 -0.25 C12.2711377 -0.28641602 13.41727539 -0.32283203 14.59814453 -0.36035156 C20.73161455 -0.4270314 24.38192411 -0.17825914 29 4 C32.10602567 8.30835819 32.42359872 11.77616174 31.6484375 16.875 C30.62125453 20.24118997 28.77972707 21.94829668 26 24 C25.01 24 24.02 24 23 24 C23.63808594 24.75925781 24.27617188 25.51851563 24.93359375 26.30078125 C25.75988281 27.29464844 26.58617187 28.28851563 27.4375 29.3125 C28.26121094 30.29863281 29.08492187 31.28476562 29.93359375 32.30078125 C32 35 32 35 33 38 C26.18051624 38.83748046 26.18051624 38.83748046 23.05078125 36.6171875 C20.38858882 33.94922025 18.15346979 31.22061282 16 28.125 C13.24506747 25.19788419 10.9104782 25.22560451 7 25 C7 29.29 7 33.58 7 38 C4.69 38 2.38 38 0 38 C0 25.46 0 12.92 0 0 Z M7 6 C7 10.29 7 14.58 7 19 C9.27024968 19.08097324 11.54132075 19.13917704 13.8125 19.1875 C15.70935547 19.23970703 15.70935547 19.23970703 17.64453125 19.29296875 C20.93848708 19.29868044 20.93848708 19.29868044 22.89453125 17.60546875 C24.26699721 15.6122408 24.85668794 14.43630495 25 12 C23.91666667 9.25 23.91666667 9.25 22 7 C18.77407872 5.82171249 15.65556195 5.8969576 12.25 5.9375 C9.65125 5.9684375 9.65125 5.9684375 7 6 Z " fill="#323031" transform="translate(588,405)"/>
<path d="M0 0 C9.24 0 18.48 0 28 0 C28 2.31 28 4.62 28 7 C21.07 7 14.14 7 7 7 C7 9.97 7 12.94 7 16 C13.6 16 20.2 16 27 16 C27 17.98 27 19.96 27 22 C20.4 22 13.8 22 7 22 C7 24.97 7 27.94 7 31 C13.93 31 20.86 31 28 31 C28 33.31 28 35.62 28 38 C18.76 38 9.52 38 0 38 C0 25.46 0 12.92 0 0 Z " fill="#323031" transform="translate(816,405)"/>
<path d="M0 0 C2.31 0 4.62 0 7 0 C7 5.28 7 10.56 7 16 C13.27 16 19.54 16 26 16 C26 10.72 26 5.44 26 0 C28.31 0 30.62 0 33 0 C33 12.54 33 25.08 33 38 C30.69 38 28.38 38 26 38 C26 33.05 26 28.1 26 23 C19.73 23 13.46 23 7 23 C7 27.95 7 32.9 7 38 C4.69 38 2.38 38 0 38 C0 25.46 0 12.92 0 0 Z " fill="#323031" transform="translate(689,405)"/>
<path d="M0 0 C2.4375 1.625 2.4375 1.625 4.4375 3.625 C4.0625 5.75 4.0625 5.75 3.4375 7.625 C1.25 8.3125 1.25 8.3125 -1.5625 8.625 C-3.23669438 7.6376546 -4.90301852 6.63687895 -6.5625 5.625 C-10.11889475 5.33468206 -13.15437846 5.57634722 -16.5625 6.625 C-16.5625 8.275 -16.5625 9.925 -16.5625 11.625 C-12.93441832 13.18560867 -9.41786817 14.16401455 -5.5625 15 C-1.02617066 16.09920895 2.16237427 17.12400352 5.4375 20.625 C7.05484652 23.85969305 7.0159335 27.12840198 6.4375 30.625 C4.16382776 34.94592069 1.02335362 37.15859332 -3.5625 38.625 C-10.82235837 39.48616941 -17.59176558 39.20256306 -23.5625 34.625 C-25.5625 31.625 -25.5625 31.625 -25.1875 29.4375 C-24.98125 28.839375 -24.775 28.24125 -24.5625 27.625 C-22.3125 26.875 -22.3125 26.875 -19.5625 26.625 C-18.985 27.24375 -18.4075 27.8625 -17.8125 28.5 C-14.87834561 31.27114581 -12.69525001 31.4433061 -8.7578125 31.7421875 C-5.73888847 31.58103497 -3.88814792 30.50052252 -1.5625 28.625 C-2.0575 26.15 -2.0575 26.15 -2.5625 23.625 C-3.65949219 23.38265625 -4.75648438 23.1403125 -5.88671875 22.890625 C-7.34130891 22.5527847 -8.79572719 22.21420375 -10.25 21.875 C-11.3318457 21.63910156 -11.3318457 21.63910156 -12.43554688 21.3984375 C-17.02481188 20.30874901 -20.09084243 18.99708804 -23.5625 15.625 C-25.09464888 12.56070224 -24.79188548 10.0084358 -24.5625 6.625 C-23.15402491 2.97953507 -21.92012171 1.84106312 -18.5625 -0.1875 C-12.5156482 -2.43420714 -5.960554 -2.3005647 0 0 Z " fill="#323031" transform="translate(981.5625,405.375)"/>
<path d="M0 0 C2.05078125 0.03255208 4.1015625 0.06510417 6.15234375 0.09765625 C8.43570962 5.1858881 10.71424573 10.27624371 12.98828125 15.36865234 C13.76298906 17.10167111 14.53902659 18.83409607 15.31640625 20.56591797 C16.43186782 23.05151921 17.54257103 25.53919833 18.65234375 28.02734375 C19.00232422 28.80447723 19.35230469 29.58161072 19.71289062 30.3822937 C22.15234375 35.86991284 22.15234375 35.86991284 22.15234375 38.09765625 C19.84234375 38.09765625 17.53234375 38.09765625 15.15234375 38.09765625 C14.46398437 36.39416016 14.46398437 36.39416016 13.76171875 34.65625 C12.38330396 32.24402412 11.72046101 31.27831334 9.04101562 30.42626953 C6.4748743 30.18292854 3.97966364 30.12779699 1.40234375 30.16015625 C0.07009766 30.13598633 0.07009766 30.13598633 -1.2890625 30.11132812 C-3.47682869 30.07604157 -5.65988638 30.07254965 -7.84765625 30.09765625 C-8.15703125 31.04640625 -8.46640625 31.99515625 -8.78515625 32.97265625 C-9.84765625 36.09765625 -9.84765625 36.09765625 -10.84765625 38.09765625 C-13.48765625 38.09765625 -16.12765625 38.09765625 -18.84765625 38.09765625 C-14.5359416 28.00509372 -10.22159215 17.91344398 -5.84765625 7.84765625 C-5.41247681 6.83928711 -5.41247681 6.83928711 -4.96850586 5.81054688 C-2.49186676 0.13170543 -2.49186676 0.13170543 0 0 Z M1.15234375 9.09765625 C0.15016314 11.40923355 -0.84949283 13.72184509 -1.84765625 16.03515625 C-2.13382813 16.69451172 -2.42 17.35386719 -2.71484375 18.03320312 C-4.20267623 20.96344122 -4.20267623 20.96344122 -4.84765625 24.09765625 C-0.55765625 24.09765625 3.73234375 24.09765625 8.15234375 24.09765625 C7.31951663 19.93352066 6.49155337 17.44229013 4.58984375 13.78515625 C3.90728516 12.46064453 3.90728516 12.46064453 3.2109375 11.109375 C2.86160156 10.44550781 2.51226563 9.78164063 2.15234375 9.09765625 C1.82234375 9.09765625 1.49234375 9.09765625 1.15234375 9.09765625 Z " fill="#323031" transform="translate(548.84765625,404.90234375)"/>
<path d="M0 0 C-0.34619039 2.59642796 -0.66345712 3.71331532 -2.6875 5.4375 C-6.11097299 6.27023667 -7.91710941 4.57166971 -11 3 C-15.34153843 2.4573077 -17.42417482 2.69579047 -21.3125 4.75 C-24.51301079 7.36027383 -24.51301079 7.36027383 -26 11 C-26.45111114 16.59377818 -26.20722488 20.18916268 -23 25 C-19.9818576 26.92242548 -17.54883309 27.29627058 -14 27.3125 C-13.154375 27.32925781 -12.30875 27.34601563 -11.4375 27.36328125 C-8.54669465 26.93244007 -7.17173725 25.90529726 -5 24 C-2.37812506 25.04874998 -1.20628639 25.64931313 0.25 28.125 C0.4975 28.74375 0.745 29.3625 1 30 C-5.99387318 34.92750156 -11.50103779 35.84636968 -20 35 C-25.34233303 33.36983536 -28.9803145 30.76181176 -32 26 C-34.71546302 20.13617407 -35.16299737 13.9185082 -33.3125 7.68359375 C-30.58818729 1.70145709 -26.85094291 -1.79383185 -20.75 -4.375 C-12.7395236 -5.7100794 -6.70523685 -4.51874657 0 0 Z " fill="#323031" transform="translate(671,409)"/>
<path d="M0 0 C-0.3521241 2.64093077 -0.65728436 3.71848358 -2.75 5.4375 C-5 6 -5 6 -7.3125 4.625 C-8.199375 4.08875 -9.08625 3.5525 -10 3 C-15.18918491 2.4339071 -18.66665607 3.04544732 -23 6 C-25.61966618 9.54922515 -26.22395903 12.25845315 -25.9375 16.5625 C-25.31679823 20.652235 -24.0168318 23.07458734 -21 26 C-17.31714676 27.84142662 -13.02829909 27.36956872 -9 27 C-5.4952235 25.67014431 -5.4952235 25.67014431 -3 24 C-1.68 25.32 -0.36 26.64 1 28 C-0.11398401 31.34195203 -0.42517048 31.61626428 -3.375 33.1875 C-9.0554135 35.83903951 -15.02289 35.97002683 -21.08203125 34.4921875 C-25.89212462 32.66875341 -29.54002639 29.73232009 -31.97265625 25.1796875 C-34.72532531 18.65010042 -34.97565236 12.88485994 -32.375 6.3125 C-29.96752209 1.43020215 -27.30514853 -1.60946182 -22.15234375 -3.77734375 C-13.89266563 -6.28973093 -7.05358683 -4.65236578 0 0 Z " fill="#323031" transform="translate(895,409)"/>
<path d="M0 0 C10.56 0 21.12 0 32 0 C32 1.98 32 3.96 32 6 C27.71 6 23.42 6 19 6 C19 16.56 19 27.12 19 38 C16.69 38 14.38 38 12 38 C12 27.44 12 16.88 12 6 C8.04 6 4.08 6 0 6 C0 4.02 0 2.04 0 0 Z " fill="#323031" transform="translate(767,405)"/>
<path d="M0 0 C10.23 0 20.46 0 31 0 C31 1.98 31 3.96 31 6 C27.04 6 23.08 6 19 6 C19 16.56 19 27.12 19 38 C16.69 38 14.38 38 12 38 C12 27.44 12 16.88 12 6 C8.04 6 4.08 6 0 6 C0 4.02 0 2.04 0 0 Z " fill="#323031" transform="translate(910,405)"/>
<path d="M0 0 C2.31 0 4.62 0 7 0 C7 12.54 7 25.08 7 38 C4.69 38 2.38 38 0 38 C0 25.46 0 12.92 0 0 Z " fill="#323031" transform="translate(743,405)"/>
<path d="M0 0 C0.928125 0.20625 1.85625 0.4125 2.8125 0.625 C2.4825 2.275 2.1525 3.925 1.8125 5.625 C-0.4975 5.955 -2.8075 6.285 -5.1875 6.625 C-5.5175 4.975 -5.8475 3.325 -6.1875 1.625 C-3.1875 -0.375 -3.1875 -0.375 0 0 Z " fill="#323031" transform="translate(629.1875,323.375)"/>
</svg>
